<svg xmlns="http://www.w3.org/2000/svg" viewBox="0 0 1600 900">
  <defs>
    <linearGradient id="bg" x1="0" y1="0" x2="1" y2="1">
      <stop offset="0" stop-color="#0d1526"/>
      <stop offset="0.55" stop-color="#1a2440"/>
      <stop offset="1" stop-color="#0a1020"/>
    </linearGradient>
    <radialGradient id="h1" cx="0.5" cy="0.5" r="0.5">
      <stop offset="0" stop-color="#1152d4" stop-opacity="0.5"/>
      <stop offset="1" stop-color="#1152d4" stop-opacity="0"/>
    </radialGradient>
    <linearGradient id="road" x1="0" y1="0" x2="0" y2="1">
      <stop offset="0" stop-color="#0a0f1c"/>
      <stop offset="1" stop-color="#131b2d"/>
    </linearGradient>
  </defs>
  <rect width="1600" height="900" fill="url(#bg)"/>
  <circle cx="1250" cy="180" r="500" fill="url(#h1)"/>
  <circle cx="200" cy="750" r="420" fill="url(#h1)"/>
  <g opacity="0.10" stroke="#3b72e9" stroke-width="1.5">
    <line x1="0" y1="0" x2="0" y2="900"/><line x1="100" y1="0" x2="100" y2="900"/><line x1="200" y1="0" x2="200" y2="900"/><line x1="300" y1="0" x2="300" y2="900"/><line x1="400" y1="0" x2="400" y2="900"/><line x1="500" y1="0" x2="500" y2="900"/><line x1="600" y1="0" x2="600" y2="900"/><line x1="700" y1="0" x2="700" y2="900"/><line x1="800" y1="0" x2="800" y2="900"/><line x1="900" y1="0" x2="900" y2="900"/><line x1="1000" y1="0" x2="1000" y2="900"/><line x1="1100" y1="0" x2="1100" y2="900"/><line x1="1200" y1="0" x2="1200" y2="900"/><line x1="1300" y1="0" x2="1300" y2="900"/><line x1="1400" y1="0" x2="1400" y2="900"/><line x1="1500" y1="0" x2="1500" y2="900"/><line x1="1600" y1="0" x2="1600" y2="900"/>
    <line x1="0" y1="0" x2="1600" y2="0"/><line x1="0" y1="100" x2="1600" y2="100"/><line x1="0" y1="200" x2="1600" y2="200"/><line x1="0" y1="300" x2="1600" y2="300"/><line x1="0" y1="400" x2="1600" y2="400"/><line x1="0" y1="500" x2="1600" y2="500"/><line x1="0" y1="600" x2="1600" y2="600"/><line x1="0" y1="700" x2="1600" y2="700"/><line x1="0" y1="800" x2="1600" y2="800"/><line x1="0" y1="900" x2="1600" y2="900"/>
  </g>
  <rect x="0" y="640" width="1600" height="260" fill="url(#road)"/>
  <g stroke="#3b72e9" stroke-opacity="0.5" stroke-width="8" stroke-dasharray="70 60">
    <line x1="0" y1="770" x2="1600" y2="770"/>
  </g>
  <text x="1180" y="700" font-size="330" text-anchor="middle">🚗</text>
  <text x="430" y="560" font-size="200" text-anchor="middle" opacity="0.9">🔧</text>
  <text x="640" y="380" font-size="120" text-anchor="middle" opacity="0.7">⚙️</text>
</svg>
