<svg xmlns="http://www.w3.org/2000/svg" viewBox="0 0 800 600">
  <defs>
    <linearGradient id="bg" x1="0" y1="0" x2="1" y2="1">
      <stop offset="0" stop-color="#1a2440"/>
      <stop offset="1" stop-color="#101622"/>
    </linearGradient>
    <radialGradient id="halo" cx="0.5" cy="0.5" r="0.5">
      <stop offset="0" stop-color="#1152d4" stop-opacity="0.35"/>
      <stop offset="1" stop-color="#1152d4" stop-opacity="0"/>
    </radialGradient>
    <linearGradient id="ring" x1="0" y1="0" x2="1" y2="1">
      <stop offset="0" stop-color="#1152d4" stop-opacity="0.55"/>
      <stop offset="1" stop-color="#0c3ea0" stop-opacity="0.15"/>
    </linearGradient>
  </defs>
  <rect width="800" height="600" fill="url(#bg)"/>
  <circle cx="137" cy="89" r="280" fill="url(#halo)"/>
  <circle cx="589" cy="539" r="224" fill="url(#halo)"/>
  <g opacity="0.12" stroke="#3b72e9" stroke-width="1">
    <line x1="0" y1="0" x2="0" y2="600"/><line x1="80" y1="0" x2="80" y2="600"/><line x1="160" y1="0" x2="160" y2="600"/><line x1="240" y1="0" x2="240" y2="600"/><line x1="320" y1="0" x2="320" y2="600"/><line x1="400" y1="0" x2="400" y2="600"/><line x1="480" y1="0" x2="480" y2="600"/><line x1="560" y1="0" x2="560" y2="600"/><line x1="640" y1="0" x2="640" y2="600"/><line x1="720" y1="0" x2="720" y2="600"/><line x1="800" y1="0" x2="800" y2="600"/>
    <line x1="0" y1="0" x2="800" y2="0"/><line x1="0" y1="80" x2="800" y2="80"/><line x1="0" y1="160" x2="800" y2="160"/><line x1="0" y1="240" x2="800" y2="240"/><line x1="0" y1="320" x2="800" y2="320"/><line x1="0" y1="400" x2="800" y2="400"/><line x1="0" y1="480" x2="800" y2="480"/><line x1="0" y1="560" x2="800" y2="560"/>
  </g>
  <circle cx="400.0" cy="280.0" r="159" fill="#151d2e" stroke="url(#ring)" stroke-width="6"/>
  <circle cx="400.0" cy="280.0" r="130" fill="none" stroke="#1152d4" stroke-opacity="0.25" stroke-width="2" stroke-dasharray="10 14"/>
  <text x="400.0" y="280.0" font-size="204" text-anchor="middle" dominant-baseline="central">🛑</text>
  <text x="400.0" y="558" font-size="31" text-anchor="middle" fill="#ffffff" fill-opacity="0.85"
        font-family="'Space Grotesk','Segoe UI',sans-serif" font-weight="700" letter-spacing="4">KIT FREINAGE</text>
  <text x="400.0" y="584" font-size="16" text-anchor="middle" fill="#3b72e9" fill-opacity="0.8"
        font-family="'Space Grotesk','Segoe UI',sans-serif" font-weight="600" letter-spacing="3">GARAGE DE LA CHAPELLE</text>
</svg>
